<svg height="512pt" viewBox="-31 0 512 512" width="512pt" xmlns="http://www.w3.org/2000/svg"><path d="m268.800781 0h-253.769531c-8.300781 0-15.03125 6.730469-15.03125 15.03125v481.9375c0 8.300781 6.730469 15.03125 15.03125 15.03125h253.769531c8.300781 0 15.027344-6.730469 15.027344-15.03125v-481.9375c.003906-8.300781-6.726563-15.03125-15.027344-15.03125zm0 0" fill="#ff7361"/><path d="m268.800781 0h-126.886719v512h126.886719c8.300781 0 15.03125-6.730469 15.03125-15.03125v-481.9375c0-8.300781-6.730469-15.03125-15.03125-15.03125zm0 0" fill="#d64d4d"/><path d="m95.859375 241.472656h-41.648437c-8.300782 0-15.027344 6.726563-15.027344 15.027344s6.726562 15.03125 15.027344 15.03125h41.648437c8.300781 0 15.03125-6.730469 15.03125-15.03125s-6.730469-15.027344-15.03125-15.027344zm0 0" fill="#d64d4d"/><path d="m298.308594 39.089844c-83.300782 0-151.066406 67.769531-151.066406 151.066406 0 83.300781 67.769531 151.070312 151.066406 151.070312s151.070312-67.769531 151.070312-151.070312c0-83.296875-67.769531-151.066406-151.070312-151.066406zm0 0" fill="#9a9bab"/><path d="m298.308594 39.089844v302.136718c83.300781 0 151.066406-67.769531 151.066406-151.066406 0-83.300781-67.765625-151.070312-151.066406-151.070312zm0 0" fill="#515260"/><path d="m298.308594 108.078125c-26.394532 0-47.867188 21.476563-47.867188 47.871094v25.074219c0 8.300781 6.726563 15.03125 15.027344 15.03125s15.03125-6.730469 15.03125-15.03125v-25.074219c0-9.824219 7.988281-17.8125 17.808594-17.8125 9.820312 0 17.8125 7.992187 17.8125 17.8125v25.074219c0 8.300781 6.726562 15.03125 15.027344 15.03125 8.300781 0 15.03125-6.730469 15.03125-15.03125v-25.074219c0-26.398438-21.472657-47.871094-47.871094-47.871094zm0 0" fill="#edeef2"/><path d="m298.308594 108.078125v30.058594c9.820312 0 17.8125 7.992187 17.8125 17.8125v25.074219c0 8.300781 6.726562 15.03125 15.027344 15.03125 8.300781 0 15.03125-6.730469 15.03125-15.03125v-25.074219c0-26.398438-21.472657-47.871094-47.871094-47.871094zm0 0" fill="#9a9bab"/><path d="m343.117188 171.527344h-89.613282c-8.300781 0-15.03125 6.730468-15.03125 15.027344v67.984374c0 8.300782 6.730469 15.027344 15.03125 15.027344h89.613282c8.300781 0 15.03125-6.726562 15.03125-15.027344v-67.984374c0-8.296876-6.730469-15.027344-15.03125-15.027344zm0 0" fill="#fffa94"/><path d="m343.117188 171.527344h-44.808594v98.039062h44.808594c8.300781 0 15.03125-6.726562 15.03125-15.027344v-67.984374c0-8.296876-6.730469-15.027344-15.03125-15.027344zm0 0" fill="#ffbd61"/></svg>