<svg height="496pt" viewBox="-64 0 496 496" width="496pt" xmlns="http://www.w3.org/2000/svg" xmlns:xlink="http://www.w3.org/1999/xlink"><linearGradient id="a"><stop offset="0" stop-color="#003f8a"/><stop offset=".518" stop-color="#00d7df"/><stop offset="1" stop-color="#006df0"/></linearGradient><linearGradient id="b" gradientUnits="userSpaceOnUse" x1="-152.704" x2="357.84" xlink:href="#a" y1="416.56" y2="-93.984"/><linearGradient id="c" gradientUnits="userSpaceOnUse" x1="-45.168" x2="465.368" xlink:href="#a" y1="524.088" y2="13.552"/><linearGradient id="d" gradientUnits="userSpaceOnUse" x1="-84.576" x2="425.968" xlink:href="#a" y1="484.688" y2="-25.848"/><linearGradient id="e" gradientUnits="userSpaceOnUse" x1="-52.632" x2="457.912" xlink:href="#a" y1="516.632" y2="6.088"/><linearGradient id="f" gradientUnits="userSpaceOnUse" x1="35.368" x2="545.912" xlink:href="#a" y1="604.632" y2="94.088"/><linearGradient id="g" gradientUnits="userSpaceOnUse" x1="-152.632" x2="357.912" xlink:href="#a" y1="416.632" y2="-93.912"/><linearGradient id="h" gradientUnits="userSpaceOnUse" x1="-136.632" x2="373.912" xlink:href="#a" y1="432.632" y2="-77.912"/><linearGradient id="i" gradientUnits="userSpaceOnUse" x1="75.368" x2="585.912" xlink:href="#a" y1="644.632" y2="134.088"/><linearGradient id="j" gradientUnits="userSpaceOnUse" x1="91.368" x2="601.912" xlink:href="#a" y1="660.632" y2="150.088"/><path d="m159.527344 24.246094c-76.085938 4.53125-135.484375 67.53125-135.527344 143.753906v56c0 4.417969 3.582031 8 8 8h128c4.417969 0 8-3.582031 8-8v-191.769531c.003906-2.203125-.902344-4.3125-2.507812-5.828125-1.605469-1.515625-3.761719-2.300782-5.964844-2.171875zm-7.527344 191.753906h-112v-48c.039062-64.492188 48.019531-118.902344 112-127.007812zm0 0" fill="url(#b)"/><path d="m200 0h-32c-92.738281.105469-167.894531 75.261719-168 168v320c0 4.417969 3.582031 8 8 8h352c4.417969 0 8-3.582031 8-8v-320c-.105469-92.738281-75.261719-167.894531-168-168zm152 168v72h-160v-224h8c83.910156.09375 151.90625 68.089844 152 152zm-336 0c.09375-83.910156 68.089844-151.90625 152-152h8v224h-160zm0 88h160v224h-160zm336 224h-160v-224h160zm0 0" fill="url(#c)"/><path d="m208 232h128c4.417969 0 8-3.582031 8-8v-56c-.042969-76.222656-59.441406-139.222656-135.527344-143.753906-2.203125-.128906-4.359375.65625-5.964844 2.171875-1.605468 1.515625-2.511718 3.625-2.507812 5.828125v191.753906c0 4.417969 3.582031 8 8 8zm8-191.007812c63.980469 8.105468 111.960938 62.515624 112 127.007812v48h-112zm0 0" fill="url(#d)"/><path d="m160 264h-128c-4.417969 0-8 3.582031-8 8v192c0 4.417969 3.582031 8 8 8h128c4.417969 0 8-3.582031 8-8v-192c0-4.417969-3.582031-8-8-8zm-8 192h-112v-176h112zm0 0" fill="url(#e)"/><path d="m208 472h128c4.417969 0 8-3.582031 8-8v-192c0-4.417969-3.582031-8-8-8h-128c-4.417969 0-8 3.582031-8 8v192c0 4.417969 3.582031 8 8 8zm8-192h112v176h-112zm0 0" fill="url(#f)"/><path d="m72 192h-16c-4.417969 0-8 3.582031-8 8s3.582031 8 8 8h16c4.417969 0 8-3.582031 8-8s-3.582031-8-8-8zm0 0" fill="url(#g)"/><path d="m90.320312 205.679688c.777344.707031 1.671876 1.273437 2.640626 1.679687 2.976562 1.277344 6.429687.609375 8.71875-1.679687.703124-.777344 1.273437-1.671876 1.679687-2.640626.855469-1.9375.855469-4.140624 0-6.078124-.386719-.980469-.957031-1.875-1.679687-2.640626-1.921876-1.875-4.644532-2.683593-7.28125-2.160156-.5.085938-.984376.25-1.4375.480469-.511719.175781-1 .417969-1.449219.71875-.414063.296875-.8125.617187-1.191407.960937-.722656.765626-1.292968 1.660157-1.679687 2.640626-.851563 1.9375-.851563 4.140624 0 6.078124.40625.96875.976563 1.863282 1.679687 2.640626zm0 0" fill="url(#h)"/><path d="m288 432h-16c-4.417969 0-8 3.582031-8 8s3.582031 8 8 8h16c4.417969 0 8-3.582031 8-8s-3.582031-8-8-8zm0 0" fill="url(#i)"/><path d="m317.679688 434.320312c-1.921876-1.875-4.644532-2.683593-7.28125-2.160156-.5.085938-.984376.25-1.4375.480469-.511719.175781-1 .417969-1.449219.71875-.414063.296875-.8125.617187-1.191407.960937-.722656.765626-1.292968 1.660157-1.679687 2.640626-.851563 1.9375-.851563 4.140624 0 6.078124.40625.96875.976563 1.863282 1.679687 2.640626 3.15625 3.09375 8.203126 3.09375 11.359376 0 .703124-.777344 1.273437-1.671876 1.679687-2.640626.855469-1.9375.855469-4.140624 0-6.078124-.386719-.980469-.957031-1.875-1.679687-2.640626zm0 0" fill="url(#j)"/></svg>